<svg width="52" height="53" viewBox="0 0 52 53" fill="none" xmlns="http://www.w3.org/2000/svg">
<rect y="0.5" width="52" height="52" rx="4" fill="#9747FF" fill-opacity="0.08"/>
<g clip-path="url(#clip0_139_12)">
<path d="M28.6667 31.833H26V26.4997C25.9992 25.0684 25.6144 23.6636 24.8857 22.4316C24.1571 21.1997 23.1113 20.1858 21.8573 19.4957C22.5785 18.7404 23.0621 17.7899 23.2481 16.7623C23.4341 15.7346 23.3142 14.675 22.9035 13.7148C22.4927 12.7547 21.8091 11.9362 20.9374 11.361C20.0657 10.7859 19.0443 10.4792 18 10.4792C16.9557 10.4792 15.9343 10.7859 15.0626 11.361C14.1909 11.9362 13.5073 12.7547 13.0965 13.7148C12.6858 14.675 12.5659 15.7346 12.7519 16.7623C12.9379 17.7899 13.4215 18.7404 14.1427 19.4957C12.8887 20.1858 11.8429 21.1997 11.1143 22.4316C10.3856 23.6636 10.0008 25.0684 10 26.4997L10 42.4997H12.6667V34.4997H39.3333V42.4997H42V21.1664H28.6667V31.833ZM15.3333 15.833C15.3333 15.3056 15.4897 14.7901 15.7827 14.3515C16.0758 13.913 16.4922 13.5712 16.9795 13.3694C17.4668 13.1675 18.003 13.1147 18.5202 13.2176C19.0375 13.3205 19.5127 13.5745 19.8856 13.9474C20.2586 14.3204 20.5125 14.7955 20.6154 15.3128C20.7183 15.8301 20.6655 16.3663 20.4637 16.8535C20.2618 17.3408 19.9201 17.7573 19.4815 18.0503C19.043 18.3433 18.5274 18.4997 18 18.4997C17.2928 18.4997 16.6145 18.2188 16.1144 17.7187C15.6143 17.2186 15.3333 16.5403 15.3333 15.833ZM12.6667 26.4997C12.6667 25.0852 13.2286 23.7287 14.2288 22.7285C15.229 21.7283 16.5855 21.1664 18 21.1664C19.4145 21.1664 20.771 21.7283 21.7712 22.7285C22.7714 23.7287 23.3333 25.0852 23.3333 26.4997V31.833H12.6667V26.4997ZM34 23.833V26.4997H36.6667V23.833H39.3333V31.833H31.3333V23.833H34Z" fill="#9747FF"/>
</g>
<defs>
<clipPath id="clip0_139_12">
<rect width="32" height="32" fill="white" transform="translate(10 10.5)"/>
</clipPath>
</defs>
</svg>
