<svg width="52" height="52" viewBox="0 0 52 52" fill="none" xmlns="http://www.w3.org/2000/svg">
<rect width="52" height="52" rx="4" fill="#FFC000" fill-opacity="0.08"/>
<g clip-path="url(#clip0_2_55)">
<path d="M28.7748 17.448L11.2002 35.0253C10.4781 35.7996 10.0848 36.824 10.1032 37.8826C10.1215 38.9412 10.5502 39.9513 11.2988 40.7001C12.0473 41.4488 13.0574 41.8777 14.116 41.8963C15.1746 41.915 16.199 41.5219 16.9735 40.8L34.5522 23.2253L28.7748 17.448ZM30.7815 23.2253L27.3335 26.6733L25.3335 24.6667L28.7815 21.2187L30.7815 23.2253ZM15.0882 38.9173C14.8186 39.1743 14.4605 39.3176 14.0882 39.3176C13.7158 39.3176 13.3577 39.1743 13.0882 38.9173C12.8234 38.6519 12.6747 38.2923 12.6747 37.9173C12.6747 37.5424 12.8234 37.1828 13.0882 36.9173L23.4468 26.5573L25.4535 28.564L15.0882 38.9173ZM38.4442 29.504L42.0002 31.2827L38.4442 33.0667L36.6668 36.616L34.8895 33.0667L31.3335 31.2827L34.8895 29.504L36.6668 25.9493L38.4442 29.504ZM18.8895 17.1107L15.3335 15.3333L18.8895 13.556L20.6668 9.99999L22.4442 13.556L26.0002 15.3333L22.4442 17.1107L20.6668 20.6667L18.8895 17.1107ZM35.7775 16.2227L32.6668 14.6667L35.7775 13.1107L37.3335 9.99999L38.8895 13.1107L42.0002 14.6667L38.8895 16.2227L37.3335 19.3333L35.7775 16.2227Z" fill="#FFC000"/>
</g>
<defs>
<clipPath id="clip0_2_55">
<rect width="32" height="32" fill="white" transform="translate(10 10)"/>
</clipPath>
</defs>
</svg>
