<svg width="52" height="53" viewBox="0 0 52 53" fill="none" xmlns="http://www.w3.org/2000/svg">
<rect y="0.5" width="52" height="52" rx="4" fill="#60CFA4" fill-opacity="0.08"/>
<g clip-path="url(#clip0_139_88)">
<path d="M38 42.5008H35.3333V35.7768C35.3323 34.7315 34.9165 33.7293 34.1774 32.9901C33.4382 32.2509 32.436 31.8352 31.3907 31.8341H20.6093C19.564 31.8352 18.5618 32.2509 17.8226 32.9901C17.0835 33.7293 16.6677 34.7315 16.6667 35.7768V42.5008H14V35.7768C14.0021 34.0246 14.6991 32.3447 15.9382 31.1056C17.1772 29.8666 18.8571 29.1696 20.6093 29.1675H31.3907C33.1429 29.1696 34.8228 29.8666 36.0618 31.1056C37.3009 32.3447 37.9979 34.0246 38 35.7768V42.5008Z" fill="#60CFA4"/>
<path d="M25.9999 26.4999C24.4177 26.4999 22.8709 26.0308 21.5554 25.1517C20.2398 24.2726 19.2144 23.0232 18.6089 21.5614C18.0034 20.0996 17.8449 18.4911 18.1536 16.9392C18.4623 15.3874 19.2242 13.9619 20.3431 12.8431C21.4619 11.7243 22.8873 10.9623 24.4392 10.6537C25.991 10.345 27.5996 10.5034 29.0614 11.1089C30.5232 11.7144 31.7726 12.7398 32.6517 14.0554C33.5307 15.371 33.9999 16.9177 33.9999 18.4999C33.9978 20.621 33.1543 22.6546 31.6544 24.1545C30.1546 25.6543 28.121 26.4978 25.9999 26.4999ZM25.9999 13.1666C24.9451 13.1666 23.9139 13.4794 23.0369 14.0654C22.1598 14.6515 21.4762 15.4844 21.0726 16.459C20.6689 17.4335 20.5633 18.5059 20.7691 19.5404C20.9748 20.575 21.4828 21.5253 22.2287 22.2712C22.9746 23.0171 23.9249 23.525 24.9594 23.7308C25.994 23.9366 27.0664 23.831 28.0409 23.4273C29.0154 23.0236 29.8484 22.34 30.4344 21.463C31.0205 20.5859 31.3332 19.5548 31.3332 18.4999C31.3332 17.0855 30.7713 15.7289 29.7711 14.7287C28.771 13.7285 27.4144 13.1666 25.9999 13.1666Z" fill="#60CFA4"/>
</g>
<defs>
<clipPath id="clip0_139_88">
<rect width="32" height="32" fill="white" transform="translate(10 10.5)"/>
</clipPath>
</defs>
</svg>
