<svg width="52" height="53" viewBox="0 0 52 53" fill="none" xmlns="http://www.w3.org/2000/svg">
<rect y="0.5" width="52" height="52" rx="4" fill="#4DABF8" fill-opacity="0.08"/>
<g clip-path="url(#clip0_139_68)">
<path d="M38 15.8337H14C12.9391 15.8337 11.9217 16.2552 11.1716 17.0053C10.4214 17.7555 10 18.7729 10 19.8337V37.1671H42V19.8337C42 18.7729 41.5786 17.7555 40.8284 17.0053C40.0783 16.2552 39.0609 15.8337 38 15.8337ZM39.3333 34.5004H12.6667V19.8337C12.6667 19.4801 12.8071 19.141 13.0572 18.8909C13.3072 18.6409 13.6464 18.5004 14 18.5004H38C38.3536 18.5004 38.6928 18.6409 38.9428 18.8909C39.1929 19.141 39.3333 19.4801 39.3333 19.8337V34.5004ZM26 21.1671C24.9452 21.1671 23.914 21.4799 23.037 22.0659C22.1599 22.6519 21.4763 23.4849 21.0726 24.4594C20.669 25.434 20.5634 26.5063 20.7691 27.5409C20.9749 28.5755 21.4829 29.5258 22.2288 30.2716C22.9746 31.0175 23.925 31.5255 24.9595 31.7313C25.9941 31.937 27.0664 31.8314 28.041 31.4278C29.0155 31.0241 29.8485 30.3405 30.4345 29.4634C31.0205 28.5864 31.3333 27.5552 31.3333 26.5004C31.3333 25.0859 30.7714 23.7294 29.7712 22.7292C28.771 21.729 27.4145 21.1671 26 21.1671ZM26 29.1671C25.4726 29.1671 24.957 29.0107 24.5185 28.7177C24.0799 28.4246 23.7382 28.0082 23.5363 27.5209C23.3345 27.0336 23.2817 26.4974 23.3846 25.9802C23.4875 25.4629 23.7414 24.9877 24.1144 24.6148C24.4873 24.2418 24.9625 23.9879 25.4798 23.885C25.997 23.7821 26.5332 23.8349 27.0205 24.0367C27.5078 24.2386 27.9242 24.5804 28.2173 25.0189C28.5103 25.4574 28.6667 25.973 28.6667 26.5004C28.6667 27.2077 28.3857 27.8859 27.8856 28.386C27.3855 28.8861 26.7072 29.1671 26 29.1671ZM18 22.5004C18 22.7641 17.9218 23.0219 17.7753 23.2412C17.6288 23.4604 17.4205 23.6313 17.1769 23.7322C16.9333 23.8332 16.6652 23.8596 16.4065 23.8081C16.1479 23.7567 15.9103 23.6297 15.7239 23.4432C15.5374 23.2567 15.4104 23.0192 15.359 22.7605C15.3075 22.5019 15.3339 22.2338 15.4348 21.9902C15.5357 21.7465 15.7066 21.5383 15.9259 21.3918C16.1452 21.2453 16.403 21.1671 16.6667 21.1671C17.0203 21.1671 17.3594 21.3075 17.6095 21.5576C17.8595 21.8076 18 22.1468 18 22.5004ZM36.6667 22.5004C36.6667 22.7641 36.5885 23.0219 36.442 23.2412C36.2955 23.4604 36.0872 23.6313 35.8436 23.7322C35.5999 23.8332 35.3319 23.8596 35.0732 23.8081C34.8146 23.7567 34.577 23.6297 34.3905 23.4432C34.2041 23.2567 34.0771 23.0192 34.0256 22.7605C33.9742 22.5019 34.0006 22.2338 34.1015 21.9902C34.2024 21.7465 34.3733 21.5383 34.5926 21.3918C34.8118 21.2453 35.0696 21.1671 35.3333 21.1671C35.687 21.1671 36.0261 21.3075 36.2761 21.5576C36.5262 21.8076 36.6667 22.1468 36.6667 22.5004ZM18 30.5004C18 30.7641 17.9218 31.0219 17.7753 31.2412C17.6288 31.4604 17.4205 31.6313 17.1769 31.7322C16.9333 31.8332 16.6652 31.8596 16.4065 31.8081C16.1479 31.7567 15.9103 31.6297 15.7239 31.4432C15.5374 31.2567 15.4104 31.0192 15.359 30.7605C15.3075 30.5019 15.3339 30.2338 15.4348 29.9902C15.5357 29.7465 15.7066 29.5383 15.9259 29.3918C16.1452 29.2453 16.403 29.1671 16.6667 29.1671C17.0203 29.1671 17.3594 29.3076 17.6095 29.5576C17.8595 29.8076 18 30.1468 18 30.5004ZM36.6667 30.5004C36.6667 30.7641 36.5885 31.0219 36.442 31.2412C36.2955 31.4604 36.0872 31.6313 35.8436 31.7322C35.5999 31.8332 35.3319 31.8596 35.0732 31.8081C34.8146 31.7567 34.577 31.6297 34.3905 31.4432C34.2041 31.2567 34.0771 31.0192 34.0256 30.7605C33.9742 30.5019 34.0006 30.2338 34.1015 29.9902C34.2024 29.7465 34.3733 29.5383 34.5926 29.3918C34.8118 29.2453 35.0696 29.1671 35.3333 29.1671C35.687 29.1671 36.0261 29.3076 36.2761 29.5576C36.5262 29.8076 36.6667 30.1468 36.6667 30.5004Z" fill="#4DABF8"/>
</g>
<defs>
<clipPath id="clip0_139_68">
<rect width="32" height="32" fill="white" transform="translate(10 10.5)"/>
</clipPath>
</defs>
</svg>
