<svg width="52" height="53" viewBox="0 0 52 53" fill="none" xmlns="http://www.w3.org/2000/svg">
<rect y="0.5" width="52" height="52" rx="4" fill="#FFC000" fill-opacity="0.08"/>
<path d="M37.9999 27.0649V25.1663C37.9999 21.9837 36.7356 18.9314 34.4852 16.681C32.2347 14.4305 29.1825 13.1663 25.9999 13.1663C22.8173 13.1663 19.765 14.4305 17.5146 16.681C15.2642 18.9314 13.9999 21.9837 13.9999 25.1663V27.0649C12.6014 27.6807 11.457 28.7582 10.758 30.117C10.0591 31.4758 9.84823 33.0335 10.1606 34.5292C10.473 36.025 11.2898 37.368 12.4741 38.3335C13.6585 39.299 15.1385 39.8284 16.6665 39.8329H19.3332V26.4996H16.6665V25.1663C16.6665 22.6909 17.6499 20.3169 19.4002 18.5666C21.1506 16.8163 23.5245 15.8329 25.9999 15.8329C28.4752 15.8329 30.8492 16.8163 32.5995 18.5666C34.3499 20.3169 35.3332 22.6909 35.3332 25.1663V26.4996H32.6665V37.1663H27.3332V39.8329H35.3332C36.8612 39.8284 38.3413 39.299 39.5257 38.3335C40.71 37.368 41.5267 36.025 41.8391 34.5292C42.1515 33.0335 41.9406 31.4758 41.2417 30.117C40.5428 28.7582 39.3983 27.6807 37.9999 27.0649ZM16.6665 37.1663C15.6057 37.1663 14.5883 36.7448 13.8381 35.9947C13.088 35.2445 12.6665 34.2271 12.6665 33.1663C12.6665 32.1054 13.088 31.088 13.8381 30.3378C14.5883 29.5877 15.6057 29.1663 16.6665 29.1663V37.1663ZM35.3332 37.1663V29.1663C36.3941 29.1663 37.4115 29.5877 38.1616 30.3378C38.9118 31.088 39.3332 32.1054 39.3332 33.1663C39.3332 34.2271 38.9118 35.2445 38.1616 35.9947C37.4115 36.7448 36.3941 37.1663 35.3332 37.1663Z" fill="#FFC000"/>
</svg>
