<svg width="52" height="53" viewBox="0 0 52 53" fill="none" xmlns="http://www.w3.org/2000/svg">
<rect y="0.5" width="52" height="52" rx="4" fill="#9747FF" fill-opacity="0.08"/>
<g clip-path="url(#clip0_139_23)">
<path d="M30.0005 42.5H22.0005V37.816C20.6102 37.3241 19.3225 36.5801 18.2019 35.6213L14.1432 37.9667L10.1432 31.0333L14.2005 28.6933C13.934 27.2433 13.934 25.7567 14.2005 24.3067L10.1432 21.9667L14.1432 15.0333L18.2019 17.3787C19.3225 16.4199 20.6102 15.6759 22.0005 15.184V10.5H30.0005V15.184C31.3908 15.6759 32.6786 16.4199 33.7992 17.3787L37.8579 15.0333L41.8579 21.9667L37.8005 24.3067C38.067 25.7567 38.067 27.2433 37.8005 28.6933L41.8579 31.0333L37.8579 37.9667L33.7992 35.6227C32.6785 36.581 31.3907 37.3245 30.0005 37.816V42.5ZM24.6672 39.8333H27.3339V35.7973L28.3352 35.5387C29.9779 35.1131 31.473 34.2468 32.6592 33.0333L33.3832 32.296L36.8805 34.316L38.2139 32.0067L34.7205 29.9893L34.9952 28.9947C35.4467 27.3586 35.4467 25.6308 34.9952 23.9947L34.7205 23L38.2139 20.9827L36.8805 18.6733L33.3832 20.6987L32.6592 19.9667C31.4724 18.7551 29.9773 17.8907 28.3352 17.4667L27.3339 17.2027V13.1667H24.6672V17.2027L23.6659 17.4613C22.0232 17.8869 20.528 18.7532 19.3419 19.9667L18.6179 20.704L15.1205 18.6787L13.7872 20.988L17.2805 23.0053L17.0059 24C16.5543 25.6361 16.5543 27.3639 17.0059 29L17.2805 29.9947L13.7872 32.012L15.1205 34.3213L18.6179 32.3013L19.3419 33.0387C20.5286 34.2502 22.0238 35.1146 23.6659 35.5387L24.6672 35.7973V39.8333ZM26.0005 31.8333C24.9457 31.8333 23.9145 31.5205 23.0375 30.9345C22.1604 30.3485 21.4768 29.5155 21.0732 28.541C20.6695 27.5664 20.5639 26.4941 20.7697 25.4595C20.9755 24.425 21.4834 23.4746 22.2293 22.7288C22.9752 21.9829 23.9255 21.4749 24.96 21.2691C25.9946 21.0634 27.067 21.169 28.0415 21.5726C29.016 21.9763 29.849 22.6599 30.435 23.537C31.0211 24.414 31.3339 25.4452 31.3339 26.5C31.3339 27.9145 30.772 29.271 29.7718 30.2712C28.7716 31.2714 27.415 31.8333 26.0005 31.8333ZM26.0005 23.8333C25.4731 23.8333 24.9575 23.9897 24.519 24.2827C24.0805 24.5758 23.7387 24.9922 23.5368 25.4795C23.335 25.9668 23.2822 26.503 23.3851 27.0202C23.488 27.5375 23.742 28.0127 24.1149 28.3856C24.4878 28.7586 24.963 29.0125 25.4803 29.1154C25.9976 29.2183 26.5337 29.1655 27.021 28.9637C27.5083 28.7618 27.9248 28.4201 28.2178 27.9815C28.5108 27.543 28.6672 27.0274 28.6672 26.5C28.6672 25.7928 28.3862 25.1145 27.8861 24.6144C27.386 24.1143 26.7078 23.8333 26.0005 23.8333Z" fill="#9747FF"/>
</g>
<defs>
<clipPath id="clip0_139_23">
<rect width="32" height="32" fill="white" transform="translate(10 10.5)"/>
</clipPath>
</defs>
</svg>
