<svg width="52" height="53" viewBox="0 0 52 53" fill="none" xmlns="http://www.w3.org/2000/svg">
<rect y="0.5" width="52" height="52" rx="4" fill="#60CFA4" fill-opacity="0.08"/>
<g clip-path="url(#clip0_139_33)">
<path d="M15.3333 42.4998L17.1107 38.9438L20.6667 37.1665L17.1107 35.3891L15.3333 31.8331L13.556 35.3891L10 37.1665L13.556 38.9438L15.3333 42.4998Z" fill="#60CFA4"/>
<path d="M38.4438 38.9438L41.9998 37.1665L38.4438 35.3891L36.6665 31.8331L34.8891 35.3891L31.3331 37.1665L34.8891 38.9438L36.6665 42.4998L38.4438 38.9438Z" fill="#60CFA4"/>
<path d="M27.7775 14.056L26.0002 10.5L24.2229 14.056L20.6669 15.8333L24.2229 17.6107L26.0002 21.1667L27.7775 17.6107L31.3335 15.8333L27.7775 14.056Z" fill="#60CFA4"/>
<path d="M16.6665 29.1667C17.4028 29.1667 17.9998 28.5697 17.9998 27.8333C17.9998 27.097 17.4028 26.5 16.6665 26.5C15.9301 26.5 15.3331 27.097 15.3331 27.8333C15.3331 28.5697 15.9301 29.1667 16.6665 29.1667Z" fill="#60CFA4"/>
<path d="M11.3333 23.8335C12.0697 23.8335 12.6667 23.2366 12.6667 22.5002C12.6667 21.7638 12.0697 21.1669 11.3333 21.1669C10.597 21.1669 10 21.7638 10 22.5002C10 23.2366 10.597 23.8335 11.3333 23.8335Z" fill="#60CFA4"/>
<path d="M16.6665 18.4998C17.4028 18.4998 17.9998 17.9028 17.9998 17.1665C17.9998 16.4301 17.4028 15.8331 16.6665 15.8331C15.9301 15.8331 15.3331 16.4301 15.3331 17.1665C15.3331 17.9028 15.9301 18.4998 16.6665 18.4998Z" fill="#60CFA4"/>
<path d="M11.3333 13.1667C12.0697 13.1667 12.6667 12.5697 12.6667 11.8333C12.6667 11.097 12.0697 10.5 11.3333 10.5C10.597 10.5 10 11.097 10 11.8333C10 12.5697 10.597 13.1667 11.3333 13.1667Z" fill="#60CFA4"/>
<path d="M40.6665 29.1667C41.4028 29.1667 41.9998 28.5697 41.9998 27.8333C41.9998 27.097 41.4028 26.5 40.6665 26.5C39.9301 26.5 39.3331 27.097 39.3331 27.8333C39.3331 28.5697 39.9301 29.1667 40.6665 29.1667Z" fill="#60CFA4"/>
<path d="M35.3333 23.8335C36.0697 23.8335 36.6667 23.2366 36.6667 22.5002C36.6667 21.7638 36.0697 21.1669 35.3333 21.1669C34.597 21.1669 34 21.7638 34 22.5002C34 23.2366 34.597 23.8335 35.3333 23.8335Z" fill="#60CFA4"/>
<path d="M40.6665 18.4998C41.4028 18.4998 41.9998 17.9028 41.9998 17.1665C41.9998 16.4301 41.4028 15.8331 40.6665 15.8331C39.9301 15.8331 39.3331 16.4301 39.3331 17.1665C39.3331 17.9028 39.9301 18.4998 40.6665 18.4998Z" fill="#60CFA4"/>
<path d="M35.3333 13.1667C36.0697 13.1667 36.6667 12.5697 36.6667 11.8333C36.6667 11.097 36.0697 10.5 35.3333 10.5C34.597 10.5 34 11.097 34 11.8333C34 12.5697 34.597 13.1667 35.3333 13.1667Z" fill="#60CFA4"/>
<path d="M28.6665 42.4998C29.4029 42.4998 29.9998 41.9028 29.9998 41.1665C29.9998 40.4301 29.4029 39.8331 28.6665 39.8331C27.9301 39.8331 27.3331 40.4301 27.3331 41.1665C27.3331 41.9028 27.9301 42.4998 28.6665 42.4998Z" fill="#60CFA4"/>
<path d="M23.3333 37.1667C24.0697 37.1667 24.6667 36.5697 24.6667 35.8333C24.6667 35.097 24.0697 34.5 23.3333 34.5C22.597 34.5 22 35.097 22 35.8333C22 36.5697 22.597 37.1667 23.3333 37.1667Z" fill="#60CFA4"/>
<path d="M28.6665 31.8336C29.4029 31.8336 29.9998 31.2366 29.9998 30.5002C29.9998 29.7638 29.4029 29.1669 28.6665 29.1669C27.9301 29.1669 27.3331 29.7638 27.3331 30.5002C27.3331 31.2366 27.9301 31.8336 28.6665 31.8336Z" fill="#60CFA4"/>
<path d="M23.3333 26.4998C24.0697 26.4998 24.6667 25.9029 24.6667 25.1665C24.6667 24.4301 24.0697 23.8331 23.3333 23.8331C22.597 23.8331 22 24.4301 22 25.1665C22 25.9029 22.597 26.4998 23.3333 26.4998Z" fill="#60CFA4"/>
</g>
<defs>
<clipPath id="clip0_139_33">
<rect width="32" height="32" fill="white" transform="translate(10 10.5)"/>
</clipPath>
</defs>
</svg>
