<svg width="121" height="30" viewBox="0 0 121 30" fill="none" xmlns="http://www.w3.org/2000/svg">
<path d="M24.4999 22.4504C25.5919 23.1864 26.3753 23.7205 26.8502 24.0529C27.7048 24.6939 28.1321 25.3111 28.1321 25.9046C28.1321 26.4744 27.776 27.2816 27.0638 28.3261C26.3516 29.3707 25.6275 29.893 24.8916 29.893C24.4405 29.893 23.7521 29.5725 22.8262 28.9315C22.7075 28.8603 22.3751 28.6348 21.8291 28.2549C21.2831 27.8751 20.8558 27.5902 20.5471 27.4003C18.3393 29.1096 15.8584 29.9642 13.1046 29.9642C9.42485 29.9642 6.31488 28.6585 3.77469 26.0471C1.25823 23.4357 0 20.3257 0 16.7172C0 14.7467 0.356104 12.9069 1.06831 11.1976C1.78051 9.46453 2.73012 8.01641 3.91713 6.85314C5.10414 5.68987 6.46921 4.77586 8.01232 4.11117C9.55543 3.44643 11.146 3.11406 12.7841 3.11406C16.2976 3.11406 19.3482 4.38414 21.9359 6.92436C24.5236 9.46453 25.8175 12.6814 25.8175 16.5747C25.8175 18.5452 25.3782 20.5037 24.4999 22.4504ZM6.303 16.5391C6.303 18.652 6.97962 20.3732 8.33281 21.7026C9.70976 23.0083 11.241 23.6612 12.9265 23.6612C14.6121 23.6612 16.1315 23.0202 17.4846 21.7382C18.8378 20.4563 19.5144 18.7351 19.5144 16.5747C19.5144 14.4144 18.826 12.6814 17.449 11.3757C16.0958 10.0699 14.5765 9.41707 12.8909 9.41707C11.2053 9.41707 9.686 10.0818 8.33281 11.4112C6.97962 12.717 6.303 14.4262 6.303 16.5391ZM37.3482 29.4657C34.9504 29.4657 32.9563 28.5635 31.3657 26.7593C29.7988 24.9313 29.0154 22.7116 29.0154 20.1001V13.8684C29.0154 13.2986 29.0273 12.8831 29.051 12.622C29.0985 12.3609 29.2053 12.0522 29.3715 11.6961C29.7039 11.0552 30.6297 10.7347 32.1491 10.7347C33.8109 10.7347 34.7843 11.1857 35.0691 12.0879C35.2116 12.4677 35.2828 13.073 35.2828 13.904V20.1358C35.2828 21.1091 35.5558 21.8688 36.1018 22.4148C36.6716 22.9608 37.4194 23.2339 38.3453 23.2339C39.2949 23.2339 40.0546 22.949 40.6243 22.3792C41.2179 21.8095 41.5146 21.0617 41.5146 20.1358V13.8328C41.5146 13.2867 41.5265 12.8831 41.5502 12.622C41.5977 12.3371 41.7164 12.0166 41.9063 11.6605C42.215 11.0433 43.1289 10.7347 44.6483 10.7347C46.144 10.7347 47.0579 11.0552 47.3903 11.6961C47.5565 12.0522 47.6514 12.3727 47.6752 12.6576C47.7227 12.9188 47.7464 13.3224 47.7464 13.8684V26.4744C47.7464 26.9967 47.7227 27.4003 47.6752 27.6852C47.6514 27.9463 47.5446 28.243 47.3547 28.5754C46.9986 29.1926 46.0846 29.5013 44.6127 29.5013C43.1646 29.5013 42.2743 29.2164 41.9419 28.6466C41.7046 28.243 41.5858 27.7564 41.5858 27.1866C41.4909 27.3528 41.2772 27.5902 40.9448 27.8988C40.6125 28.2074 40.292 28.4686 39.9834 28.6822C39.1762 29.2045 38.2978 29.4657 37.3482 29.4657ZM50.6111 13.904C50.6111 13.3579 50.6228 12.9543 50.6468 12.6932C50.6942 12.4083 50.8008 12.0879 50.967 11.7317C51.2994 11.1145 52.2253 10.8059 53.7446 10.8059C54.8842 10.8059 55.6912 11.0077 56.1664 11.4112C56.5697 11.7436 56.7833 12.254 56.8073 12.9425C56.8313 13.1799 56.843 13.5241 56.843 13.9752V26.4388C56.843 26.9848 56.819 27.4003 56.7716 27.6852C56.7482 27.9463 56.6411 28.2549 56.4509 28.611C56.1425 29.2283 55.2283 29.5369 53.709 29.5369C52.2136 29.5369 51.2994 29.2164 50.967 28.5754C50.8008 28.2193 50.6942 27.9107 50.6468 27.6495C50.6228 27.3884 50.6111 26.9729 50.6111 26.4032V13.904ZM56.4509 7.31608C56.2852 7.64845 55.9762 7.88584 55.5255 8.02829C55.0743 8.17074 54.4686 8.24191 53.709 8.24191C52.9732 8.24191 52.3798 8.17074 51.9286 8.02829C51.4779 7.88584 51.1572 7.63657 50.967 7.28044C50.8008 6.92436 50.6942 6.61575 50.6468 6.35461C50.6228 6.0697 50.6111 5.65428 50.6111 5.10823C50.6111 4.56223 50.6228 4.15864 50.6468 3.89749C50.6942 3.61259 50.8008 3.30398 50.967 2.97161C51.2994 2.33062 52.2253 2.01013 53.7446 2.01013C55.2405 2.01013 56.1425 2.33062 56.4509 2.97161C56.6411 3.32774 56.7482 3.64823 56.7716 3.93308C56.819 4.19422 56.843 4.59782 56.843 5.14382C56.843 5.68987 56.819 6.10534 56.7716 6.39019C56.7482 6.65134 56.6411 6.95995 56.4509 7.31608ZM69.0529 23.2695H75.1425C76.0918 23.2695 76.7684 23.3882 77.1722 23.6256C77.5994 23.863 77.8845 24.2072 78.0267 24.6583C78.1695 25.1093 78.2403 25.7028 78.2403 26.4388C78.2403 27.1747 78.1695 27.7682 78.0267 28.2193C77.8845 28.6703 77.6351 28.9908 77.2787 29.1808C76.9229 29.347 76.6022 29.4538 76.3177 29.5013C76.0561 29.525 75.6528 29.5369 75.1068 29.5369H62.2515C61.4204 29.5369 60.6964 29.2283 60.079 28.611C59.4621 27.9938 59.1536 27.2578 59.1536 26.4032C59.1536 25.5485 59.4621 24.8244 60.079 24.2309C60.6964 23.6137 61.6463 22.7353 62.928 21.5958C64.2098 20.4563 65.3733 19.4354 66.418 18.5333C67.4626 17.6074 68.0321 17.097 68.127 17.002H63.106C61.7528 17.002 60.8983 16.7765 60.5419 16.3255C60.1387 15.8032 59.9368 15.1147 59.9368 14.2601C59.9368 13.4054 59.9964 12.7763 60.1147 12.3727C60.2335 11.9454 60.3762 11.6368 60.5419 11.4469C60.7082 11.2332 60.9457 11.067 61.2542 10.9483C61.658 10.8296 62.2754 10.7703 63.106 10.7703H74.6795C75.5106 10.7703 76.2346 11.067 76.8515 11.6605C77.4689 12.254 77.7774 13.0019 77.7774 13.904C77.7774 14.7824 77.4215 15.5658 76.7093 16.2542C75.997 16.9427 73.4452 19.2811 69.0529 23.2695ZM97.5651 17.9279C97.5651 19.3761 97.197 20.4563 96.4608 21.1685C95.7485 21.8569 94.9537 22.2012 94.0752 22.2012H85.6357C85.6357 22.8659 86.0273 23.4238 86.8104 23.8749C87.594 24.3259 88.3777 24.5514 89.1608 24.5514C90.5379 24.5514 91.6177 24.409 92.4014 24.1241L92.7929 23.9817C93.3629 23.7205 93.8376 23.59 94.2175 23.59C94.9771 23.59 95.6302 24.1241 96.1763 25.1924C96.4848 25.8334 96.6392 26.3794 96.6392 26.8305C96.6392 28.9434 94.1109 29.9998 89.0542 29.9998C87.2973 29.9998 85.7305 29.703 84.3534 29.1096C83.0003 28.4923 81.9439 27.6852 81.1842 26.688C79.6883 24.7651 78.9409 22.6166 78.9409 20.2426C78.9409 17.2514 79.9024 14.8655 81.8251 13.0849C83.7717 11.2807 86.1935 10.3785 89.0894 10.3785C92.3897 10.3785 94.8109 11.5418 96.3542 13.8684C97.1613 15.1028 97.5651 16.456 97.5651 17.9279ZM90.051 18.9606C90.9534 18.9606 91.4041 18.5808 91.4041 17.8211C91.4041 17.2751 91.1905 16.8359 90.7632 16.5035C90.3599 16.1711 89.7665 16.005 88.9828 16.005C88.2232 16.005 87.4635 16.3255 86.7038 16.9664C85.9441 17.5837 85.5643 18.2484 85.5643 18.9606H90.051ZM106.441 23.2339C107.224 23.2339 107.805 23.4357 108.185 23.8392C108.565 24.2428 108.755 25.0737 108.755 26.332C108.755 27.5902 108.553 28.433 108.15 28.8603C107.746 29.2639 107.165 29.4657 106.405 29.4657C104.007 29.4657 102.322 28.8959 101.348 27.7564C100.375 26.5931 99.888 24.6702 99.888 21.9875V5.00142C99.888 4.45537 99.9002 4.05177 99.9237 3.79063C99.9711 3.50577 100.078 3.18528 100.244 2.82915C100.577 2.21193 101.503 1.90332 103.022 1.90332C104.47 1.90332 105.372 2.23569 105.728 2.90038C105.918 3.23275 106.025 3.54136 106.049 3.82627C106.096 4.08741 106.12 4.49101 106.12 5.037V22.1299C106.12 22.8659 106.227 23.2339 106.441 23.2339ZM115.735 22.1299C115.735 22.581 115.83 22.8777 116.02 23.0202C116.21 23.1626 116.696 23.2339 117.48 23.2339C118.263 23.2339 118.916 23.4357 119.438 23.8392C119.96 24.2428 120.222 25.0737 120.222 26.332C120.222 27.5902 119.937 28.433 119.367 28.8603C118.821 29.2639 118.049 29.4657 117.053 29.4657C112.019 29.4657 109.503 26.973 109.503 21.9875L109.468 5.00142C109.468 4.45537 109.479 4.05177 109.503 3.79063C109.551 3.50577 109.669 3.18528 109.859 2.82915C110.215 2.21193 111.141 1.90332 112.637 1.90332C114.085 1.90332 114.987 2.23569 115.343 2.90038C115.604 3.42267 115.735 4.13488 115.735 5.037V22.1299Z" fill="url(#paint0_linear_509_1659)"/>
<path d="M13.0199 20.1843C15.171 20.1843 16.9147 18.4405 16.9147 16.2894C16.9147 14.1383 15.171 12.3945 13.0199 12.3945C10.8688 12.3945 9.125 14.1383 9.125 16.2894C9.125 18.4405 10.8688 20.1843 13.0199 20.1843Z" fill="url(#paint1_linear_509_1659)"/>
<path d="M26.9859 0.0201027C26.7493 -0.0259366 26.5263 0.00684669 26.3584 0.121104L23.3963 2.08214L23.3931 2.08433C23.1617 2.24248 23.0496 2.54396 23.0837 2.89871L23.379 6.13691L12.9632 14.4532C12.538 14.7725 12.6017 15.6078 13.1045 16.242C13.6077 16.8766 14.4104 17.1333 14.821 16.7954L20.0932 12.5859L25.2385 8.47768L28.3437 9.48667L28.347 9.48769C28.6859 9.59542 29.0065 9.54811 29.2085 9.3486L31.7762 6.8945L31.7792 6.89169C32.0509 6.62382 32.0751 6.10734 31.8449 5.60529C31.6141 5.10207 31.1498 4.66218 30.6857 4.50897L30.6832 4.50815L28.6492 3.84728L28.4552 1.71968C28.4229 1.33597 28.2132 0.943847 27.9557 0.646044C27.6976 0.347477 27.3459 0.0909717 26.9859 0.0201027Z" fill="#F7CB45"/>
<defs>
<linearGradient id="paint0_linear_509_1659" x1="60.1109" y1="1.90332" x2="60.1109" y2="29.9998" gradientUnits="userSpaceOnUse">
<stop stop-color="#571D8F"/>
<stop offset="1" stop-color="#A768E4"/>
</linearGradient>
<linearGradient id="paint1_linear_509_1659" x1="13.0199" y1="12.3945" x2="13.0199" y2="20.1843" gradientUnits="userSpaceOnUse">
<stop stop-color="#571D8F"/>
<stop offset="1" stop-color="#A768E4"/>
</linearGradient>
</defs>
</svg>
